<svg width="24" height="24" viewBox="0 0 24 24" fill="none" xmlns="http://www.w3.org/2000/svg"><path d="M4 3h16a1 1 0 011 1v16a1 1 0 01-1 1H4a1 1 0 01-1-1V4a1 1 0 011-1zm1 2v14h14V5H5zm2.5 4a1.5 1.5 0 110-3 1.5 1.5 0 010 3zm-1 1h2v7.5h-2V10zm5.5.4a3 3 0 012-.9c2 0 3.5 1.7 3.5 3.8v4.2h-2v-4.3a1.7 1.7 0 00-3.5 0v4.3h-2V10h2v.4z" fill="url(#paint0_linear)"/><defs><linearGradient id="paint0_linear" x1="21" y1="3" x2="-.4" y2="8.9" gradientUnits="userSpaceOnUse"><stop stop-color="#FF9F3B"/><stop offset="1" stop-color="#FF39F7"/></linearGradient></defs></svg>