
<svg width="24" height="24" viewBox="0 0 24 24" fill="none" xmlns="http://www.w3.org/2000/svg"><path d="M19.6 7c0-.3-.3-.5-.5-.6-.5-.1-2.6-.4-7.1-.4s-6.6.3-7 .4c-.3 0-.5.3-.6.6a25 25 0 00-.4 5c0 2.8.3 4.6.4 5 0 .3.3.5.5.6.5.1 2.6.4 7.1.4s6.6-.3 7-.4c.3 0 .5-.3.6-.6.1-.4.4-2.2.4-5a25 25 0 00-.4-5zm2-.5c.4 1.8.4 5.5.4 5.5s0 3.7-.5 5.5c-.2 1-1 1.8-1.9 2-1.7.5-7.6.5-7.6.5s-5.9 0-7.6-.5c-1-.2-1.7-1-2-2C2 15.7 2 12 2 12s0-3.7.5-5.5c.2-1 1-1.8 1.9-2C6 4 12 4 12 4s5.9 0 7.6.5c1 .2 1.7 1 2 2zm-11.6 9v-7l6 3.5-6 3.5z" fill="url(#paint0_linear)"/><defs><linearGradient id="paint0_linear" x1="22" y1="4" x2="-.8" y2="11.9" gradientUnits="userSpaceOnUse"><stop stop-color="#FF9F3B"/><stop offset="1" stop-color="#FF39F7"/></linearGradient></defs></svg>